<svg xmlns="http://www.w3.org/2000/svg" version="1.1" xmlns:xlink="http://www.w3.org/1999/xlink" xmlns:svgjs="http://svgjs.dev/svgjs" width="1500" height="1500" viewBox="0 0 1500 1500"><rect width="1500" height="1500" fill="#ffffff"></rect><g transform="matrix(0.6666666666666666,0,0,0.6666666666666666,249.39393939393932,616.8676615394993)"><svg viewBox="0 0 396 106" data-background-color="#1f2d5a" preserveAspectRatio="xMidYMid meet" height="401" width="1500" xmlns="http://www.w3.org/2000/svg" xmlns:xlink="http://www.w3.org/1999/xlink"><g id="tight-bounds" transform="matrix(1,0,0,1,0.24000000000003752,-0.2118657974572784)"><svg viewBox="0 0 395.5199999999999 106.42373159491454" height="106.42373159491454" width="395.5199999999999"><g><svg viewBox="0 0 687.7624370876624 185.05826508313535" height="106.42373159491454" width="395.5199999999999"><g><rect width="7.667435536308598" height="185.05826508313535" x="264.5031807756769" y="0" fill="#000000" opacity="1" stroke-width="0" stroke="transparent" fill-opacity="1" class="rect-qz-0" data-fill-palette-color="primary" rx="1%" id="qz-0" data-palette-color="#fbfbfb"></rect></g><g transform="matrix(1,0,0,1,292.24243708766244,0.4603439429928642)"><svg viewBox="0 0 395.52 184.13757719714962" height="184.13757719714962" width="395.52"><g id="textblocktransform"><svg viewBox="0 0 395.52 184.13757719714962" height="184.13757719714962" width="395.52" id="textblock"><g><svg viewBox="0 0 395.52 184.13757719714962" height="184.13757719714962" width="395.52"><g transform="matrix(1,0,0,1,0,0)"><svg width="395.52" viewBox="2 -35.49999999999999 168.4 75.4" height="184.13757719714962" data-palette-color="#fbfbfb"><svg></svg><svg></svg><g class="wordmark-text-0" data-fill-palette-color="primary" id="text-0"><path d="M12.1-15.7l-0.4-2 2.4 0.1c2.5 0 4.8-0.4 6.9-1.2v0c1.233-0.467 2.227-1.2 2.98-2.2 0.747-1 1.12-2.233 1.12-3.7v0c0-5.267-3.167-7.9-9.5-7.9v0l-5.2 0.2v28.8c0 0.467 0.033 0.833 0.1 1.1 0.067 0.267 0.283 0.517 0.65 0.75 0.367 0.233 0.917 0.35 1.65 0.35v0h1.9v1.4h-12.7v-1.4h1.6c0.733 0 1.283-0.117 1.65-0.35 0.367-0.233 0.583-0.483 0.65-0.75 0.067-0.267 0.1-0.633 0.1-1.1v0-27.7c0-0.767-0.157-1.327-0.47-1.68-0.32-0.347-0.963-0.52-1.93-0.52v0h-1.6v-1.5h7.7l9.5-0.5c3 0 5.417 0.65 7.25 1.95 1.833 1.3 2.75 3.123 2.75 5.47 0 2.353-0.54 4.403-1.62 6.15-1.087 1.753-2.43 3.063-4.03 3.93v0c-3.033 1.6-5.75 2.4-8.15 2.4v0c-1.4 0-2.5-0.033-3.3-0.1zM48.5-6.1v0l0.9 0.9c-2.133 3.933-5.967 5.9-11.5 5.9v0c-2.567 0-4.757-1.133-6.57-3.4-1.82-2.267-2.73-4.8-2.73-7.6v0c0-3.767 1.227-6.993 3.68-9.68 2.447-2.68 5.42-4.02 8.92-4.02v0c1.667 0 3.133 0.483 4.4 1.45v0c2.267 1.767 3.4 4.05 3.4 6.85v0c0 0.4-0.073 0.883-0.22 1.45-0.153 0.567-0.28 0.85-0.38 0.85v0l-16.1 0.5c0 2.6 0.817 5 2.45 7.2 1.633 2.2 3.617 3.3 5.95 3.3v0c1.667 0 3.21-0.343 4.63-1.03 1.413-0.68 2.47-1.57 3.17-2.67zM32.8-14.9v0l11.7-0.5c0.067 0 0.1-0.3 0.1-0.9v0c0-1.733-0.507-2.967-1.52-3.7-1.02-0.733-2.42-1.1-4.2-1.1-1.787 0-3.247 0.55-4.38 1.65-1.133 1.1-1.7 2.617-1.7 4.55zM67.6-3.1v0l0.4 1.2c-2.5 1.733-5.233 2.6-8.2 2.6v0c-1.067 0-1.983-0.383-2.75-1.15-0.767-0.767-1.15-1.783-1.15-3.05v0-17.7h-2.9v-2.1h1.1c1.1 0 2.127-0.667 3.08-2 0.947-1.333 1.42-2.567 1.42-3.7v0h1.3v5.7h6.8v2.1h-4.9c-1.267 0-1.9 0.6-1.9 1.8v0 14.3c0 2.2 0.8 3.3 2.4 3.3v0c1.8 0 3.567-0.433 5.3-1.3z" fill="#000000" fill-rule="nonzero" stroke="none" stroke-width="1" stroke-linecap="butt" stroke-linejoin="miter" stroke-miterlimit="10" stroke-dasharray="" stroke-dashoffset="0" font-family="none" font-weight="none" font-size="none" text-anchor="none" style="mix-blend-mode: normal" data-fill-palette-color="primary" opacity="1"></path><path transform="translate(0,39.2)" d="M2-35h7.7l9.5-0.5c2.933 0 5.333 0.617 7.2 1.85 1.867 1.233 2.8 2.917 2.8 5.05v0c0 2.967-0.8 5.383-2.4 7.25-1.6 1.867-3.567 3.283-5.9 4.25v0l8.1 12.2c0.333 0.533 0.977 1.25 1.93 2.15 0.947 0.9 1.803 1.35 2.57 1.35v0h0.9v1.4h-7.4c0.1 0-0.217-0.5-0.95-1.5-0.733-1-1.15-1.6-1.25-1.8v0l-8.3-12.8c-0.333 0.067-1 0.1-2 0.1-1 0-1.8-0.033-2.4-0.1v0l-0.4-2c0.467 0.067 1.467 0.1 3 0.1 1.533 0 3.067-0.2 4.6-0.6 1.533-0.4 2.883-1.16 4.05-2.28 1.167-1.113 1.75-2.553 1.75-4.32v0c0-4.933-3.167-7.4-9.5-7.4v0l-5.2 0.2v28.7c0 0.5 0.033 0.883 0.1 1.15 0.067 0.267 0.283 0.523 0.65 0.77 0.367 0.253 0.917 0.38 1.65 0.38v0h1.9v1.4h-12.7v-1.4h1.6c0.733 0 1.283-0.127 1.65-0.38 0.367-0.247 0.583-0.503 0.65-0.77 0.067-0.267 0.1-0.65 0.1-1.15v0-27.6c0-0.767-0.157-1.327-0.47-1.68-0.32-0.347-0.963-0.52-1.93-0.52v0h-1.6zM56.6-6.1v0l0.9 0.9c-2.133 3.933-5.967 5.9-11.5 5.9v0c-2.567 0-4.757-1.133-6.57-3.4-1.82-2.267-2.73-4.8-2.73-7.6v0c0-3.767 1.227-6.993 3.68-9.68 2.447-2.68 5.42-4.02 8.92-4.02v0c1.667 0 3.133 0.483 4.4 1.45v0c2.267 1.767 3.4 4.05 3.4 6.85v0c0 0.4-0.073 0.883-0.22 1.45-0.153 0.567-0.28 0.85-0.38 0.85v0l-16.1 0.5c0 2.6 0.817 5 2.45 7.2 1.633 2.2 3.617 3.3 5.95 3.3v0c1.667 0 3.21-0.343 4.63-1.03 1.413-0.68 2.47-1.57 3.17-2.67zM40.9-14.9v0l11.7-0.5c0.067 0 0.1-0.3 0.1-0.9v0c0-1.733-0.507-2.967-1.52-3.7-1.02-0.733-2.42-1.1-4.2-1.1-1.787 0-3.247 0.55-4.38 1.65-1.133 1.1-1.7 2.617-1.7 4.55zM86.2-1.4v1.4h-7.2v-5.9c-0.767 2.1-1.95 3.723-3.55 4.87-1.6 1.153-3.55 1.73-5.85 1.73v0c-1.2 0-2.217-0.267-3.05-0.8-0.833-0.533-1.433-1.217-1.8-2.05v0c-0.633-1.433-0.95-2.85-0.95-4.25v0-11.9c0-1.533-0.967-2.3-2.9-2.3v0-1.4c0.667 0 1.677-0.183 3.03-0.55 1.347-0.367 2.337-0.75 2.97-1.15v0l0.9-0.1v16.5c0 1.5 0.36 2.64 1.08 3.42 0.713 0.787 1.72 1.18 3.02 1.18v0c1.867 0 3.517-1 4.95-3 1.433-2 2.15-3.5 2.15-4.5v0-8.1c0-1.533-0.967-2.3-2.9-2.3v0-1.4c0.733 0 1.777-0.183 3.13-0.55 1.347-0.367 2.337-0.75 2.97-1.15v0l0.9-0.1v20.4c0 0.467 0.033 0.817 0.1 1.05v0c0.167 0.633 0.867 0.95 2.1 0.95v0zM115.4-1.4v1.4h-8.6v-1.4h0.2c0.367 0 0.677-0.183 0.93-0.55 0.247-0.367 0.37-0.817 0.37-1.35v0-12.7c0-1.5-0.357-2.643-1.07-3.43-0.72-0.78-1.73-1.17-3.03-1.17v0c-1.867 0-3.517 1-4.95 3-1.433 2-2.15 3.5-2.15 4.5v0 9.5c0 0.533 0.027 0.917 0.08 1.15 0.047 0.233 0.237 0.467 0.57 0.7 0.333 0.233 0.85 0.35 1.55 0.35v0h0.9v1.4h-10.1v-1.4h0.8c0.9 0 1.477-0.15 1.73-0.45 0.247-0.3 0.37-0.783 0.37-1.45v0-15c0-0.633-0.207-1.093-0.62-1.38-0.42-0.28-1.18-0.42-2.28-0.42v0-1.4c0.667 0 1.677-0.243 3.03-0.73 1.347-0.48 2.37-0.937 3.07-1.37v0l0.9-0.2v6.4c0.767-2.1 1.95-3.727 3.55-4.88 1.6-1.147 3.55-1.72 5.85-1.72v0c1.2 0 2.217 0.267 3.05 0.8 0.833 0.533 1.433 1.217 1.8 2.05v0c0.633 1.433 0.95 2.85 0.95 4.25v0 13.5c0 0.467 0.033 0.817 0.1 1.05v0c0.167 0.633 0.867 0.95 2.1 0.95v0zM124.03-34.8c0.747 0 1.33 0.25 1.75 0.75 0.413 0.5 0.62 1.14 0.62 1.92 0 0.787-0.317 1.437-0.95 1.95-0.633 0.52-1.323 0.78-2.07 0.78-0.753 0-1.337-0.25-1.75-0.75-0.42-0.5-0.63-1.123-0.63-1.87 0-0.753 0.317-1.407 0.95-1.96 0.633-0.547 1.327-0.82 2.08-0.82zM129.5-1.4v1.4h-10.1v-1.4h0.8c0.9 0 1.473-0.15 1.72-0.45 0.253-0.3 0.38-0.783 0.38-1.45v0-15c0-0.633-0.21-1.093-0.63-1.38-0.413-0.28-1.17-0.42-2.27-0.42v0-1.4c0.667 0 1.673-0.243 3.02-0.73 1.353-0.48 2.38-0.937 3.08-1.37v0l0.9-0.2v20.2c0 0.533 0.027 0.917 0.08 1.15 0.047 0.233 0.237 0.467 0.57 0.7 0.333 0.233 0.85 0.35 1.55 0.35v0zM147.6-3.1v0l0.4 1.2c-2.5 1.733-5.233 2.6-8.2 2.6v0c-1.067 0-1.983-0.383-2.75-1.15-0.767-0.767-1.15-1.783-1.15-3.05v0-17.7h-2.9v-2.1h1.1c1.1 0 2.127-0.667 3.08-2 0.947-1.333 1.42-2.567 1.42-3.7v0h1.3v5.7h6.8v2.1h-4.9c-1.267 0-1.9 0.6-1.9 1.8v0 14.3c0 2.2 0.8 3.3 2.4 3.3v0c1.8 0 3.567-0.433 5.3-1.3zM169.5-6.1v0l0.9 0.9c-2.133 3.933-5.967 5.9-11.5 5.9v0c-2.567 0-4.757-1.133-6.57-3.4-1.82-2.267-2.73-4.8-2.73-7.6v0c0-3.767 1.227-6.993 3.68-9.68 2.447-2.68 5.42-4.02 8.92-4.02v0c1.667 0 3.133 0.483 4.4 1.45v0c2.267 1.767 3.4 4.05 3.4 6.85v0c0 0.4-0.073 0.883-0.22 1.45-0.153 0.567-0.28 0.85-0.38 0.85v0l-16.1 0.5c0 2.6 0.817 5 2.45 7.2 1.633 2.2 3.617 3.3 5.95 3.3v0c1.667 0 3.21-0.343 4.63-1.03 1.413-0.68 2.47-1.57 3.17-2.67zM153.8-14.9v0l11.7-0.5c0.067 0 0.1-0.3 0.1-0.9v0c0-1.733-0.507-2.967-1.52-3.7-1.02-0.733-2.42-1.1-4.2-1.1-1.787 0-3.247 0.55-4.38 1.65-1.133 1.1-1.7 2.617-1.7 4.55z" fill="#000000" fill-rule="nonzero" stroke="none" stroke-width="1" stroke-linecap="butt" stroke-linejoin="miter" stroke-miterlimit="10" stroke-dasharray="" stroke-dashoffset="0" font-family="none" font-weight="none" font-size="none" text-anchor="none" style="mix-blend-mode: normal" data-fill-palette-color="primary" opacity="1"></path></g></svg></g></svg></g></svg></g></svg></g><g transform="matrix(1,0,0,1,0,10.379840158244761)"><svg viewBox="0 0 244.43135999999998 164.29858476664583" height="164.29858476664583" width="244.43135999999998"><g><svg xmlns="http://www.w3.org/2000/svg" xmlns:xlink="http://www.w3.org/1999/xlink" version="1.1" x="0" y="0" viewBox="-345.76500000000004 275.279 99.42178716439025 66.82799999999997" enable-background="new -346 256 100 100" xml:space="preserve" height="164.29858476664583" width="244.43135999999998" class="icon-icon-0" data-fill-palette-color="accent" id="icon-0"><g fill="#2f76db" data-fill-palette-color="accent"><path d="M-251.339 331.136c-1.075-0.089-10.585-1.174-13.146-12.066-1.193-5.07-0.778-11.961-0.771-12.072 0.029-0.447-0.054-5.186-0.681-7.358-2.921-10.141-18.188-15.871-36.045-12.331-3.322 0.658-6.707 1.383-9.986 2.229 0.362 3.394 0.476 9.926-3.161 14.244-3.077 3.656-9.528 4.764-10.254 4.879-0.113 0.016-0.226 0.025-0.337 0.025-1.037 0-1.95-0.755-2.117-1.811-0.186-1.17 0.614-2.271 1.784-2.454 1.539-0.249 5.903-1.341 7.642-3.406 2.163-2.569 2.434-6.594 2.297-9.446-0.092-1.936-0.047-16.29-0.047-16.29l-8.137 6.194c-1.875-0.712-3.939-1.112-6.114-1.112-2.109 0-4.118 0.373-5.947 1.046l-7.168-6.016v11.439c-1.411 2.03-2.238 4.402-2.238 6.952 0 5.992 4.494 11.062 10.695 12.788-0.211 2.04 0.017 4.297 0.793 6.817 1.057 3.43 3.927 6.252 7.952 8.349v15.042c0 2.928 2.374 5.302 5.303 5.302 2.927 0 5.302-2.374 5.302-5.302v-11.63c5.116 0.897 10.841 1.051 16.618 0.36l-8.898 7.167c-2.28 1.838-2.64 5.175-0.803 7.456 1.048 1.299 2.583 1.976 4.132 1.976 1.167 0 2.343-0.384 3.323-1.173l15.905-12.812c0.08-0.063 0.138-0.138 0.212-0.207v8.78c0 2.929 2.375 5.302 5.301 5.302 2.928 0 5.303-2.373 5.303-5.302V322.9c4.018 14.116 16.391 18.641 22.565 19.025 0.116 0.008 0.229 0.012 0.344 0.012 2.811 0 5.155-2.177 5.361-5.021C-246.146 333.958-248.382 331.379-251.339 331.136z" fill="#000000" data-fill-palette-color="accent"></path></g></svg></g></svg></g></svg></g><defs></defs></svg><rect width="395.5199999999999" height="106.42373159491454" fill="none" stroke="none" visibility="hidden"></rect></g></svg></g></svg>